<svg width="153" height="136" viewBox="0 0 153 136" fill="none" xmlns="http://www.w3.org/2000/svg">
<g id="dots">
<rect id="Dot" x="0.5" width="8" height="8" rx="4" fill="#7291F9"/>
<rect id="Dot_2" x="0.5" y="16" width="8" height="8" rx="4" fill="#7291F9"/>
<rect id="Dot_3" x="0.5" y="32" width="8" height="8" rx="4" fill="#7291F9"/>
<rect id="Dot_4" x="0.5" y="48" width="8" height="8" rx="4" fill="#7291F9"/>
<rect id="Dot_5" x="0.5" y="64" width="8" height="8" rx="4" fill="#7291F9"/>
<rect id="Dot_6" x="0.5" y="80" width="8" height="8" rx="4" fill="#7291F9"/>
<rect id="Dot_7" x="0.5" y="96" width="8" height="8" rx="4" fill="#7291F9"/>
<rect id="Dot_8" x="0.5" y="112" width="8" height="8" rx="4" fill="#7291F9"/>
<rect id="Dot_9" x="0.5" y="128" width="8" height="8" rx="4" fill="#7291F9"/>
<rect id="Dot_10" x="16.5" width="8" height="8" rx="4" fill="#7291F9"/>
<rect id="Dot_11" x="16.5" y="16" width="8" height="8" rx="4" fill="#7291F9"/>
<rect id="Dot_12" x="16.5" y="32" width="8" height="8" rx="4" fill="#7291F9"/>
<rect id="Dot_13" x="16.5" y="48" width="8" height="8" rx="4" fill="#7291F9"/>
<rect id="Dot_14" x="16.5" y="64" width="8" height="8" rx="4" fill="#7291F9"/>
<rect id="Dot_15" x="16.5" y="80" width="8" height="8" rx="4" fill="#7291F9"/>
<rect id="Dot_16" x="16.5" y="96" width="8" height="8" rx="4" fill="#7291F9"/>
<rect id="Dot_17" x="16.5" y="112" width="8" height="8" rx="4" fill="#7291F9"/>
<rect id="Dot_18" x="16.5" y="128" width="8" height="8" rx="4" fill="#7291F9"/>
<rect id="Dot_19" x="32.5" width="8" height="8" rx="4" fill="#7291F9"/>
<rect id="Dot_20" x="32.5" y="16" width="8" height="8" rx="4" fill="#7291F9"/>
<rect id="Dot_21" x="32.5" y="32" width="8" height="8" rx="4" fill="#7291F9"/>
<rect id="Dot_22" x="32.5" y="48" width="8" height="8" rx="4" fill="#7291F9"/>
<rect id="Dot_23" x="32.5" y="64" width="8" height="8" rx="4" fill="#7291F9"/>
<rect id="Dot_24" x="32.5" y="80" width="8" height="8" rx="4" fill="#7291F9"/>
<rect id="Dot_25" x="32.5" y="96" width="8" height="8" rx="4" fill="#7291F9"/>
<rect id="Dot_26" x="32.5" y="112" width="8" height="8" rx="4" fill="#7291F9"/>
<rect id="Dot_27" x="32.5" y="128" width="8" height="8" rx="4" fill="#7291F9"/>
<rect id="Dot_28" x="48.5" width="8" height="8" rx="4" fill="#7291F9"/>
<rect id="Dot_29" x="48.5" y="16" width="8" height="8" rx="4" fill="#7291F9"/>
<rect id="Dot_30" x="48.5" y="32" width="8" height="8" rx="4" fill="#7291F9"/>
<rect id="Dot_31" x="48.5" y="48" width="8" height="8" rx="4" fill="#7291F9"/>
<rect id="Dot_32" x="48.5" y="64" width="8" height="8" rx="4" fill="#7291F9"/>
<rect id="Dot_33" x="48.5" y="80" width="8" height="8" rx="4" fill="#7291F9"/>
<rect id="Dot_34" x="48.5" y="96" width="8" height="8" rx="4" fill="#7291F9"/>
<rect id="Dot_35" x="48.5" y="112" width="8" height="8" rx="4" fill="#7291F9"/>
<rect id="Dot_36" x="48.5" y="128" width="8" height="8" rx="4" fill="#7291F9"/>
<rect id="Dot_37" x="64.5" width="8" height="8" rx="4" fill="#7291F9"/>
<rect id="Dot_38" x="64.5" y="16" width="8" height="8" rx="4" fill="#7291F9"/>
<rect id="Dot_39" x="64.5" y="32" width="8" height="8" rx="4" fill="#7291F9"/>
<rect id="Dot_40" x="64.5" y="48" width="8" height="8" rx="4" fill="#7291F9"/>
<rect id="Dot_41" x="64.5" y="64" width="8" height="8" rx="4" fill="#7291F9"/>
<rect id="Dot_42" x="64.5" y="80" width="8" height="8" rx="4" fill="#7291F9"/>
<rect id="Dot_43" x="64.5" y="96" width="8" height="8" rx="4" fill="#7291F9"/>
<rect id="Dot_44" x="64.5" y="112" width="8" height="8" rx="4" fill="#7291F9"/>
<rect id="Dot_45" x="64.5" y="128" width="8" height="8" rx="4" fill="#7291F9"/>
<rect id="Dot_46" x="80.5" width="8" height="8" rx="4" fill="#7291F9"/>
<rect id="Dot_47" x="80.5" y="16" width="8" height="8" rx="4" fill="#7291F9"/>
<rect id="Dot_48" x="80.5" y="32" width="8" height="8" rx="4" fill="#7291F9"/>
<rect id="Dot_49" x="80.5" y="48" width="8" height="8" rx="4" fill="#7291F9"/>
<rect id="Dot_50" x="80.5" y="64" width="8" height="8" rx="4" fill="#7291F9"/>
<rect id="Dot_51" x="80.5" y="80" width="8" height="8" rx="4" fill="#7291F9"/>
<rect id="Dot_52" x="80.5" y="96" width="8" height="8" rx="4" fill="#7291F9"/>
<rect id="Dot_53" x="80.5" y="112" width="8" height="8" rx="4" fill="#7291F9"/>
<rect id="Dot_54" x="80.5" y="128" width="8" height="8" rx="4" fill="#7291F9"/>
<rect id="Dot_55" x="96.5" width="8" height="8" rx="4" fill="#7291F9"/>
<rect id="Dot_56" x="96.5" y="16" width="8" height="8" rx="4" fill="#7291F9"/>
<rect id="Dot_57" x="96.5" y="32" width="8" height="8" rx="4" fill="#7291F9"/>
<rect id="Dot_58" x="96.5" y="48" width="8" height="8" rx="4" fill="#7291F9"/>
<rect id="Dot_59" x="96.5" y="64" width="8" height="8" rx="4" fill="#7291F9"/>
<rect id="Dot_60" x="96.5" y="80" width="8" height="8" rx="4" fill="#7291F9"/>
<rect id="Dot_61" x="96.5" y="96" width="8" height="8" rx="4" fill="#7291F9"/>
<rect id="Dot_62" x="96.5" y="112" width="8" height="8" rx="4" fill="#7291F9"/>
<rect id="Dot_63" x="96.5" y="128" width="8" height="8" rx="4" fill="#7291F9"/>
<rect id="Dot_64" x="112.5" width="8" height="8" rx="4" fill="#7291F9"/>
<rect id="Dot_65" x="112.5" y="16" width="8" height="8" rx="4" fill="#7291F9"/>
<rect id="Dot_66" x="112.5" y="32" width="8" height="8" rx="4" fill="#7291F9"/>
<rect id="Dot_67" x="112.5" y="48" width="8" height="8" rx="4" fill="#7291F9"/>
<rect id="Dot_68" x="112.5" y="64" width="8" height="8" rx="4" fill="#7291F9"/>
<rect id="Dot_69" x="112.5" y="80" width="8" height="8" rx="4" fill="#7291F9"/>
<rect id="Dot_70" x="112.5" y="96" width="8" height="8" rx="4" fill="#7291F9"/>
<rect id="Dot_71" x="112.5" y="112" width="8" height="8" rx="4" fill="#7291F9"/>
<rect id="Dot_72" x="112.5" y="128" width="8" height="8" rx="4" fill="#7291F9"/>
<rect id="Dot_73" x="128.5" width="8" height="8" rx="4" fill="#7291F9"/>
<rect id="Dot_74" x="128.5" y="16" width="8" height="8" rx="4" fill="#7291F9"/>
<rect id="Dot_75" x="128.5" y="32" width="8" height="8" rx="4" fill="#7291F9"/>
<rect id="Dot_76" x="128.5" y="48" width="8" height="8" rx="4" fill="#7291F9"/>
<rect id="Dot_77" x="128.5" y="64" width="8" height="8" rx="4" fill="#7291F9"/>
<rect id="Dot_78" x="128.5" y="80" width="8" height="8" rx="4" fill="#7291F9"/>
<rect id="Dot_79" x="128.5" y="96" width="8" height="8" rx="4" fill="#7291F9"/>
<rect id="Dot_80" x="128.5" y="112" width="8" height="8" rx="4" fill="#7291F9"/>
<rect id="Dot_81" x="128.5" y="128" width="8" height="8" rx="4" fill="#7291F9"/>
<rect id="Dot_82" x="144.5" width="8" height="8" rx="4" fill="#7291F9"/>
<rect id="Dot_83" x="144.5" y="16" width="8" height="8" rx="4" fill="#7291F9"/>
<rect id="Dot_84" x="144.5" y="32" width="8" height="8" rx="4" fill="#7291F9"/>
<rect id="Dot_85" x="144.5" y="48" width="8" height="8" rx="4" fill="#7291F9"/>
<rect id="Dot_86" x="144.5" y="64" width="8" height="8" rx="4" fill="#7291F9"/>
<rect id="Dot_87" x="144.5" y="80" width="8" height="8" rx="4" fill="#7291F9"/>
<rect id="Dot_88" x="144.5" y="96" width="8" height="8" rx="4" fill="#7291F9"/>
<rect id="Dot_89" x="144.5" y="112" width="8" height="8" rx="4" fill="#7291F9"/>
<rect id="Dot_90" x="144.5" y="128" width="8" height="8" rx="4" fill="#7291F9"/>
</g>
</svg>
